<svg xmlns="http://www.w3.org/2000/svg" xmlns:xlink="http://www.w3.org/1999/xlink" 
    width="16" height="16" viewBox="0 0 16 16">
    <defs>
        <path id="7sgta" d="M975 211a2 2 0 1 0 0-4 2 2 0 0 0 0 4zm0-6a4 4 0 1 1 0 8 4 4 0 0 1 0-8zm7.684 5.51l-.903-.374c-.414-.172-.748-.671-.748-1.155 0-.44.335-.945.748-1.117l.903-.373a.511.511 0 0 0 .277-.667l-.79-1.914a.505.505 0 0 0-.665-.277l-.896.371c-.421.175-1.009.056-1.352-.288-.313-.312-.433-.91-.261-1.325l.37-.895a.51.51 0 0 0-.276-.665l-1.912-.791a.506.506 0 0 0-.666.276l-.374.903c-.172.414-.673.748-1.158.748-.442 0-.949-.335-1.12-.748l-.374-.903a.51.51 0 0 0-.665-.276l-1.91.791a.505.505 0 0 0-.276.665l.373.901c.17.413.053 1.003-.291 1.346-.312.313-.907.435-1.32.265l-.9-.373a.51.51 0 0 0-.665.278l-.793 1.911a.506.506 0 0 0 .276.667l.903.373c.414.172.748.671.748 1.155 0 .44-.335.945-.748 1.117l-.903.373a.511.511 0 0 0-.277.667l.79 1.914c.11.266.406.385.665.277l.902-.373c.413-.172 1.003-.054 1.346.29.313.312.434.907.264 1.319l-.373.9a.51.51 0 0 0 .276.666l1.912.791a.506.506 0 0 0 .666-.276l.374-.903c.172-.414.673-.748 1.158-.748.442 0 .949.335 1.12.748l.374.903a.51.51 0 0 0 .665.276l1.91-.794a.506.506 0 0 0 .276-.665l-.373-.901c-.172-.413-.054-1.003.29-1.347.312-.312.907-.433 1.32-.262l.9.373a.51.51 0 0 0 .666-.277l.793-1.911a.506.506 0 0 0-.276-.667z"/></defs><g><g transform="translate(-967 -201)"><use fill="darkblue" xlink:href="#7sgta"/></g></g></svg>