<svg xmlns="http://www.w3.org/2000/svg" xmlns:xlink="http://www.w3.org/1999/xlink" width="59" height="12" viewBox="0 0 59 12"><defs><path id="vphwa" d="M594 188a6 6 0 1 1 12 0 6 6 0 0 1-12 0z"/><path id="vphwc" d="M598.045 185.578c-.282 0-.503.116-.579.388l-.001-.002a.645.645 0 0 0-.002.008.1.1 0 0 1-.024-.069c.017-.277.381-.325.6-.325zm-.579.388l.015.015a.74.74 0 0 0-.023.163c-.005.137.128.27.302.343h5.146a6.771 6.771 0 0 0-.157-.35h.016l.005.01h.007c.053.11.104.224.152.34h.002c.094 0 .183.01.263.028.073.14.138.286.192.436a.722.722 0 0 1-.137.054c.024.097.046.196.067.295l-.005.02a.592.592 0 0 1-.105.077h.245c.04.181.065.368.075.56h-.022c.01.14.017.281.022.423l-.01.017h-.294a.451.451 0 0 1 .164.34c0 .17-.104.319-.262.409h.192l-.004.021a9.393 9.393 0 0 1-.01.049h.014a3.53 3.53 0 0 1-.031.093 8.975 8.975 0 0 1-.206.829l-.008.008h-.544c.093.047.152.109.158.176a.426.426 0 0 1 .064.307 6.163 6.163 0 0 1-.126.237.676.676 0 0 1-.482.19h-.163c-.427.482-.91.794-1.42.91h-.825a.763.763 0 0 1-.084-.005 2.14 2.14 0 0 1-.25-.076c-.173-.09-.28-.246-.28-.42 0-.049.008-.096.024-.14a.147.147 0 0 1-.025-.08c0-.073.06-.14.16-.19h-1.483l-.007-.004c-.17-.28-.324-.589-.46-.923a.586.586 0 0 1-.406-.3 6.174 6.174 0 0 1-.042-.168v-.014c0-.037.005-.074.014-.109a3.498 3.498 0 0 1-.014-.033v-.008c0-.074.063-.142.165-.192a.595.595 0 0 1 .095-.067h-.39l-.01-.013a10.428 10.428 0 0 1-.07-.918h.002l-.002-.053.01-.017h.222a.453.453 0 0 1-.162-.34c0-.048.009-.096.025-.14a.146.146 0 0 1-.025-.08c0-.072.06-.139.16-.189h-.09l.004-.02c.027-.143.056-.283.089-.42h-.023c.023-.07.047-.138.074-.205.03-.117.064-.233.099-.347l.008-.008h.628c-.148-.08-.254-.208-.25-.345a.809.809 0 0 1 .027-.176zm3.543-1.194c.088.05.142.112.142.18 0 .05-.029.098-.079.139a.423.423 0 0 1 .009.084.485.485 0 0 1-.26.413h-.067c.184-.081.308-.238.308-.413a.368.368 0 0 0-.007-.071c-.108.078-.299.131-.514.131h-1.846a3.427 3.427 0 0 0-.374.353h-.034c.117-.131.239-.249.364-.353h-.374a3.41 3.41 0 0 1 1.556-.552c.04-.006.08-.01.121-.013h.357c.24.01.473.045.698.102m-3.937 1.746a8.33 8.33 0 0 0-.062.198c.032-.067.066-.133.101-.198zm5.86.528h-6.01a9.686 9.686 0 0 0-.087.417h.14c.103-.038.23-.06.369-.06h5.796a.597.597 0 0 0 .156-.101 9.278 9.278 0 0 0-.065-.294c-.089.024-.191.038-.3.038zm-5.866 1.26h5.648c.138 0 .265.024.367.064h.05a.656.656 0 0 0-.36-.105h-5.778c.023.015.048.029.073.041zm.278-.35c-.257 0-.479-.077-.565-.184a.379.379 0 0 0-.02.124c0 .134.071.257.187.344h5.824c.158 0 .303.05.412.13h.325a10.793 10.793 0 0 0-.021-.414zm-.334.356a.633.633 0 0 1-.06-.047h-.261v.047zm5.76.895a.566.566 0 0 0 .196-.034h-5.476a.557.557 0 0 0-.194.034zm.546-.624c0 .156-.271.283-.602.283h-5.974a3.65 3.65 0 0 1-.03-.168c.011.172.027.342.047.51h.447a.712.712 0 0 1 .287-.058h5.566c.185-.082.31-.239.31-.415a.392.392 0 0 0-.067-.216c.01.02.016.042.016.064zm-.17-.19c.039.02.072.043.1.067a.614.614 0 0 0-.075-.067zm-5.88.837h-.056a.653.653 0 0 0-.054.036.854.854 0 0 1 .11-.036zm5.817.544h-5.6c-.255 0-.474-.075-.562-.18a4.264 4.264 0 0 1-.014-.032.372.372 0 0 0-.01.08v.009l.04.159a.564.564 0 0 0 .377.285 4.035 4.035 0 0 1-.005-.011l-.01-.026h4.842c.068 0 .135.01.196.026.041.01.08.02.115.033h.614a9.06 9.06 0 0 0 .175-.695c-.047.12-.1.238-.158.352zm-.147-.554h.348l.007-.047h-.238a.636.636 0 0 1-.117.047zm-1.045 1.807h.082l.025-.039h-.063l-.044.04zm.791-.66a3.56 3.56 0 0 1-.124.138.96.96 0 0 1-.473.108h-4.313a3.516 3.516 0 0 1-.419-.486c.13.324.28.625.444.898h1.555c.102-.037.228-.059.366-.059h2.34l-.026.03a4.53 4.53 0 0 1-.025.03h.134a.662.662 0 0 0 .47-.184c.043-.076.084-.155.123-.23a.377.377 0 0 0-.05-.254.16.16 0 0 1-.002.01zm-.832.68c-.395.245-.84.41-1.318.474h-.817c-.028 0-.055 0-.082-.003a3.318 3.318 0 0 1-.246-.043.485.485 0 0 1-.233-.136.372.372 0 0 0-.02.122c0 .157.101.305.267.393.082.03.164.055.247.075a.757.757 0 0 0 .083.004h.825c.498-.113.97-.417 1.39-.886zm.604-5.469h.016c.185.171.351.362.497.569h-.19l-.004-.01h-.008a6.037 6.037 0 0 0-.304-.555zm.296.569h-4.72c-.203 0-.453-.064-.55-.159.068-.263.28-.378.556-.378h4.424c.103.169.2.348.29.537z"/><path id="vphwd" d="M650.77 185.27v2.682l.825-.82h.787l-1.102 1.065 1.183 1.471h-.76l-.84-1.07-.093.094v.976h-.586v-4.398zm-3.396 1.862h.591v.234a.967.967 0 0 1 .696-.304c.296 0 .527.093.693.278.143.158.215.416.215.774v1.554h-.592v-1.416c0-.25-.034-.423-.104-.518-.068-.098-.192-.146-.372-.146-.195 0-.334.064-.416.192-.08.127-.12.349-.12.664v1.224h-.591zm-2.605 1.26c0 .243.065.441.196.594a.64.64 0 0 0 .505.232.672.672 0 0 0 .526-.224c.133-.155.2-.35.2-.589a.867.867 0 0 0-.2-.588.663.663 0 0 0-.521-.227.648.648 0 0 0-.505.23.845.845 0 0 0-.2.572zm1.39-1.26h.59v2.536h-.59v-.265c-.24.226-.5.338-.778.338-.35 0-.64-.126-.87-.38-.227-.259-.34-.581-.34-.969 0-.38.113-.697.34-.95a1.1 1.1 0 0 1 .855-.38c.295 0 .56.121.794.364zm-4.19 1.966h.375c.275 0 .476-.054.605-.161a.558.558 0 0 0 .203-.443.567.567 0 0 0-.196-.438c-.126-.116-.353-.174-.68-.174h-.307zm0-1.724h.19c.226 0 .392-.05.497-.15.105-.1.157-.247.157-.441 0-.19-.054-.333-.161-.431-.108-.098-.264-.147-.469-.147h-.214zm-.606 2.294v-4.02h.604c.269 0 .483.02.643.062a.967.967 0 0 1 .409.211c.113.102.202.23.268.383.068.154.102.31.102.469a.95.95 0 0 1-.331.731c.214.073.382.2.505.383.125.18.188.39.188.63 0 .315-.111.58-.334.797a1.094 1.094 0 0 1-.45.279 2.62 2.62 0 0 1-.685.075zm-2.772-1.609c-.081-.312-.278-.469-.59-.469a.607.607 0 0 0-.372.127.595.595 0 0 0-.131.147.684.684 0 0 0-.084.195zm.612.48h-1.825a.769.769 0 0 0 .204.497c.12.121.274.182.462.182a.604.604 0 0 0 .364-.104c.094-.07.201-.198.321-.386l.497.276c-.076.13-.157.242-.243.335-.085.093-.177.17-.274.23-.098.06-.204.103-.317.13a1.546 1.546 0 0 1-.369.042c-.38 0-.685-.121-.915-.364-.23-.245-.345-.57-.345-.974 0-.401.112-.726.335-.974.225-.245.523-.367.894-.367.375 0 .671.119.89.356.215.237.323.564.323.982zm-2.773-1.298v.779a1.428 1.428 0 0 0-.36-.336.7.7 0 0 0-.367-.094.724.724 0 0 0-.55.232.813.813 0 0 0-.218.58c0 .239.07.434.21.587.143.153.324.229.545.229.14 0 .265-.03.372-.091.104-.06.227-.174.368-.344v.773a1.539 1.539 0 0 1-.714.185c-.392 0-.72-.126-.984-.38a1.269 1.269 0 0 1-.396-.95c0-.379.133-.698.4-.959.268-.26.596-.39.985-.39.25 0 .486.06.709.18zm-4.785-.109h.589v.234a.96.96 0 0 1 .693-.304c.295 0 .525.093.69.278.142.158.213.416.213.774v1.554h-.588v-1.416c0-.25-.035-.423-.104-.518-.068-.098-.191-.146-.37-.146-.195 0-.333.064-.414.192-.08.127-.12.349-.12.664v1.224h-.589zm-2.604 1.26c0 .243.065.441.195.594a.64.64 0 0 0 .505.232.672.672 0 0 0 .526-.224c.134-.155.201-.35.201-.589a.867.867 0 0 0-.2-.588.663.663 0 0 0-.521-.227.648.648 0 0 0-.506.23.845.845 0 0 0-.2.572zm1.39-1.26h.59v2.536h-.59v-.265c-.24.226-.5.338-.778.338-.35 0-.64-.126-.87-.38-.227-.259-.341-.581-.341-.969 0-.38.114-.697.341-.95a1.1 1.1 0 0 1 .854-.38c.295 0 .56.121.795.364zm-3.172-1.055c0-.102.038-.19.112-.265a.366.366 0 0 1 .269-.112c.105 0 .196.037.27.112a.36.36 0 0 1 .112.268.369.369 0 0 1-.112.27.36.36 0 0 1-.268.113.369.369 0 0 1-.27-.112.372.372 0 0 1-.113-.274zm.665 1.055v2.536h-.576v-2.536zm-1.204-1.862v4.398h-.586v-4.398zm-1.214 0v4.398h-.586v-4.398zm-2.195 2.852l-.597-1.368-.625 1.368zm.24.57h-1.717l-.447.976h-.652l1.985-4.273 1.914 4.273h-.662zm-6.603-.3c0 .243.065.441.195.594a.64.64 0 0 0 .505.232.672.672 0 0 0 .527-.224c.133-.155.2-.35.2-.589a.867.867 0 0 0-.2-.588.663.663 0 0 0-.521-.227.648.648 0 0 0-.506.23.845.845 0 0 0-.2.572zm1.39-1.26h.59v2.536h-.59v-.265c-.24.226-.5.338-.778.338-.35 0-.64-.126-.87-.38-.227-.259-.341-.581-.341-.969 0-.38.114-.697.341-.95a1.1 1.1 0 0 1 .854-.38c.295 0 .56.121.795.364zm-3.172-1.055c0-.102.038-.19.112-.265a.366.366 0 0 1 .269-.112c.106 0 .196.037.27.112a.36.36 0 0 1 .112.268.369.369 0 0 1-.112.27.36.36 0 0 1-.268.113.369.369 0 0 1-.27-.112.372.372 0 0 1-.113-.274zm.675 1.055v2.536h-.586v-2.536zm-1.162.432l-.484.258c-.077-.156-.171-.234-.284-.234-.054 0-.1.018-.138.053a.179.179 0 0 0-.057.137c0 .097.112.193.338.289.31.134.52.257.628.37a.633.633 0 0 1 .161.455c0 .245-.09.45-.27.615a.922.922 0 0 1-.636.234c-.425 0-.727-.207-.904-.622l.5-.232c.07.122.123.199.16.232a.362.362 0 0 0 .254.099c.198 0 .297-.09.297-.27 0-.105-.076-.202-.229-.293a8.298 8.298 0 0 0-.177-.086 16.238 16.238 0 0 1-.18-.085 1.1 1.1 0 0 1-.359-.25.616.616 0 0 1-.133-.41c0-.22.076-.402.227-.546a.795.795 0 0 1 .562-.216c.325 0 .566.167.724.502zm-3.073.558l-.602-1.368-.63 1.368zm.237.57h-1.721l-.448.976h-.654l1.99-4.273 1.919 4.273h-.664z"/><clipPath id="vphwb"><use fill="#fff" xlink:href="#vphwa"/></clipPath></defs><g><g transform="translate(-594 -182)"><use fill="#fff" fill-opacity=".03" xlink:href="#vphwa"/><use fill="#fff" fill-opacity="0" stroke="#fff" stroke-miterlimit="50" stroke-opacity=".2" clip-path="url(&quot;#vphwb&quot;)" xlink:href="#vphwa"/></g><g transform="translate(-594 -182)"><use fill="#fff" xlink:href="#vphwc"/></g><g transform="translate(-594 -182)"><use fill="#fff" xlink:href="#vphwd"/></g></g></svg>