<svg xmlns="http://www.w3.org/2000/svg" xmlns:xlink="http://www.w3.org/1999/xlink" width="36" height="36" viewBox="0 0 36 36"><defs><path id="ylhua" d="M483 357c0-9.941 8.059-18 18-18s18 8.059 18 18-8.059 18-18 18-18-8.059-18-18z"/><path id="ylhuc" d="M493.309 350.694c.002.188.223.363.55.492-.323-.126-.552-.298-.55-.492zm1.42.694zm0 0c.123.012.249.02.373.02h-.019c-.114 0-.234-.008-.355-.02zm1.073-2.763h.108c.84-.54 1.761-.961 2.742-1.24a10.2 10.2 0 0 0-2.85 1.24zm8.205-1.322c.265.146.424.333.424.536 0 .462-.821.84-1.826.84h-6.988l.077-.05A10.28 10.28 0 0 1 500.85 347h1.07c.716.03 1.415.134 2.087.303m2.97 18.639h-.107c-.604.406-1.253.749-1.937 1.018a10.352 10.352 0 0 0 2.045-1.018zm-6.834 1.625c-.083 0-.165-.003-.246-.008a10 10 0 0 1-.737-.13c-.49-.15-.815-.409-.815-.702 0-.461.81-.84 1.798-.84h7.017l-.076.05a10.421 10.421 0 0 1-4.419 1.63h-.074-.002zm-5.833-2.728a10.482 10.482 0 0 1-1.421-1.68h14.523c1.014 0 1.846.373 1.846.84a.364.364 0 0 1-.022.124c-.124.137-.25.27-.377.397-.354.202-.88.319-1.447.319zm14.35-.321c-.106.063-.23.118-.37.164.203-.05.385-.12.532-.202.126-.126.25-.257.367-.383a.357.357 0 0 0 .014-.098c0-.288-.368-.546-.911-.682.457.152.756.402.756.682a.412.412 0 0 1-.015.11c-.121.14-.245.276-.373.409m-15.218-3.877h17.367l.053-.156h-17.4c-.979 0-1.778.36-1.778.785v.008c.197-.365.912-.637 1.758-.637zm0 1.68c-.766 0-1.425-.223-1.69-.536a11.909 11.909 0 0 1-.122-.28v-.024c0-.046.007-.09.023-.133a5.417 5.417 0 0 1-.023-.053v-.024c0-.468.826-.84 1.833-.84h17.474l-.011.036-.06.174h.071a10.575 10.575 0 0 1-.7 1.68zm15.69-2.729H491.21a10.723 10.723 0 0 1-.21-1.679h.01l-.01-.182.028-.028h18.271c1.015 0 1.848.372 1.848.84 0 .165-.104.319-.285.448-.222.347-.916.601-1.73.601zm0-1.679c.993 0 1.805.378 1.805.84a.403.403 0 0 1-.02.125c.112-.102.175-.216.175-.335 0-.426-.805-.786-1.793-.786h-18.243l.01.156zm-16.11-1.05c-.68 0-1.274-.175-1.585-.433-.144-.12-.227-.258-.227-.406 0-.147.082-.284.225-.404.31-.259.906-.435 1.587-.435h18.322a10.768 10.768 0 0 1 .223 1.65l-.002.002.002.027zm-.834-4.352a9.991 9.991 0 0 0-.692 1.57h.151c.182-.545.407-1.07.67-1.57zm18.96 1.337c-.334.176-.823.287-1.365.287H491.42l.012-.035c.19-.566.43-1.11.716-1.63l.024-.013h17.61c.284 0 .551.03.79.084.22.42.413.856.575 1.307m-17.838-3.172c.04-.619.672-.902 1.561-.943-.645.032-1.515.22-1.561.948a.252.252 0 0 0 0-.005zm15.088-.94l-.019-.008h.046a10.52 10.52 0 0 1 1.464 1.68l-.03-.043a10.299 10.299 0 0 0-1.461-1.63zm1.385 1.617h-14.68c-.851 0-1.76-.33-1.738-.674.04-.63.756-.897 1.738-.897h13.266c.525.475.999 1.001 1.414 1.571z"/><clipPath id="ylhub"><use fill="#fff" xlink:href="#ylhua"/></clipPath></defs><g><g transform="translate(-483 -339)"><use fill="#fff" fill-opacity="0" stroke="#0a266c" stroke-miterlimit="50" clip-path="url(&quot;#ylhub&quot;)" xlink:href="#ylhua"/></g><g transform="translate(-483 -339)"><use fill="#0a266c" xlink:href="#ylhuc"/></g></g></svg>